 http://img811.imageshack.us/img811/6797/beztytuluheqppnh.jpg

Country.......: USA
Genre.........: Horror
Date release..: 17.09.2010 [World]
Director......: Jim Mickle
Writers.......: Nick Damici, Jim Mickle
Duration......: 99 min.
More..........: http://www.imdb.com/title/tt1464580
Trailer.......: http://www.imdb.com/video/imdb/vi1238080793
Trailer.......:

Pilot :
Martin was a normal teenage boy before the country collapsed in an empty pit of economic and political disaster. A vampire epidemic has swept across what is left of the nation's abandoned towns and cities, and it's up to Mister, a death dealing, rogue vampire hunter, to get Martin safely north to Canada, the continent's New Eden.

Cats :
Danielle Harris   	 ...  	Belle
Kelly McGillis 	... 	Sister
Connor Paolo 	... 	Martin
Bonnie Dennison 	... 	Peggy
Michael Cerveris 	... 	Jebedia Loven
Nick Damici 	... 	Mister
Sean Nelson 	... 	Willie
Chance Kelly 	... 	Officer Harley
Adam Scarimbolo 	... 	Kevin
Marianne Hagan 	... 	Doctor Foley
Eilis Cahill 	... 	Scamp
Traci Hovel 	... 	Martins Mother
Stuart Rudin 	... 	Pops The Barber
Lou Sumrall 	... 	Brotherhood Man
Graham Reznick 	... 	Local Radio Voice #2 

Data Technical :
!!! SAMPLE !!!
Audio.....: English
Subtitles.: English .srt, Spanish .srt, Polish .txt
Format                           : AVI
Format/Info                      : Audio Video Interleave
File size                        : 829 MiB
Duration                         : 1h 38mn
Overall bit rate                 : 1 173 Kbps
Writing application              : VirtualDubMod 1.5.10.2 (build 2540/release)
Writing library                  : VirtualDubMod build 2540/release
Video
ID                               : 0
Format                           : MPEG-4 Visual
Format profile                   : Advanced Simple@L5
Format settings, BVOP            : Yes
Format settings, QPel            : No
Format settings, GMC             : No warppoints
Format settings, Matrix          : Default (H.263)
Codec ID                         : XVID
Codec ID/Hint                    : XviD
Duration                         : 1h 38mn
Bit rate                         : 971 Kbps
Width                            : 640 pixels
Height                           : 272 pixels
Display aspect ratio             : 2.35:1
Frame rate                       : 23.976 fps
Color space                      : YUV
Chroma subsampling               : 4:2:0
Bit depth                        : 8 bits
Scan type                        : Progressive
Bits/(Pixel*Frame)               : 0.233
Stream size                      : 687 MiB (83%)
Writing library                  : XviD 1.2.1 (UTC 2008-12-04)
Audio
ID                               : 1
Format                           : AC-3
Format/Info                      : Audio Coding 3
Mode extension                   : CM (complete main)
Codec ID                         : 2000
Duration                         : 1h 38mn
Bit rate mode                    : Constant
Bit rate                         : 192 Kbps
Channel(s)                       : 2 channels
Channel positions                : Front: L R
Sampling rate                    : 48.0 KHz
Bit depth                        : 16 bits
Stream size                      : 136 MiB (16%)
Alignment                        : Aligned on interleaves
Interleave, duration             : 42 ms (1.00 video frame)
Interleave, preload duration     : 512 ms

Screen : 
http://img189.imageshack.us/img189/8273/stakeland2010s1.jpg 
http://img577.imageshack.us/img577/3769/stakeland2010s2.jpg 
http://img23.imageshack.us/img23/9876/stakeland2010s3.jpg 
http://img17.imageshack.us/img17/3311/stakeland2010s4.jpg 
http://img848.imageshack.us/img848/2548/stakeland2010s5.jpg